<svg xmlns="http://www.w3.org/2000/svg" xmlns:xlink="http://www.w3.org/1999/xlink" viewBox="0 0 93.6 86.54"><defs><style>.cls-1{fill:url(#linear-gradient);}.cls-2{fill:url(#radial-gradient);}.cls-3{fill:url(#linear-gradient-2);}.cls-4{font-size:14.04px;}.cls-4,.cls-5{fill:#3a0505;}.cls-4,.cls-6{font-family:Suissnord;}.cls-6{font-size:20.32px;}</style><linearGradient id="linear-gradient" x1="251.14" y1="398.49" x2="263.91" y2="406.66" gradientUnits="userSpaceOnUse"><stop offset="0" stop-color="#231f20"/><stop offset="0.28" stop-color="#3c4937"/><stop offset="0.6" stop-color="#53704d"/><stop offset="0.85" stop-color="#62885b"/><stop offset="1" stop-color="#679160"/></linearGradient><radialGradient id="radial-gradient" cx="216.11" cy="429.33" r="34.8" gradientUnits="userSpaceOnUse"><stop offset="0" stop-color="#679160"/><stop offset="0.09" stop-color="#5a7f54"/><stop offset="0.27" stop-color="#384f34"/><stop offset="0.53" stop-color="#020302"/><stop offset="0.54"/><stop offset="0.6" stop-color="#070906"/><stop offset="0.7" stop-color="#192317"/><stop offset="0.83" stop-color="#364c32"/><stop offset="0.98" stop-color="#5e8557"/><stop offset="1" stop-color="#648d5d"/></radialGradient><linearGradient id="linear-gradient-2" x1="196.51" y1="393.74" x2="245.6" y2="393.74" gradientUnits="userSpaceOnUse"><stop offset="0" stop-color="#231f20"/><stop offset="0.52" stop-color="#455840"/><stop offset="1" stop-color="#679160"/></linearGradient></defs><title>logo</title><g id="Layer_1" data-name="Layer 1"><path class="cls-1" d="M249.85,414.57a14.19,14.19,0,0,0,12.44-7c4.6-7.55,5.68-12.53,12.13-13.36l-.47-.4s-6.07-3.09-16.8,1.05A22,22,0,0,0,245,407.21l.06.67s9.32-10.82,19.28-10.64a33.06,33.06,0,0,1-5.39,2.57,31.3,31.3,0,0,0-5.18,3.07c-.44.4-6.69,4.47-6.87,7.5s-.49,2.63-.37,4S248.71,414.82,249.85,414.57Z" transform="translate(-180.82 -377.09)"/><path class="cls-2" d="M212.72,395.12c-18.66,1.37-30.21,13.65-31.78,32.05s12.27,35,32.8,36.38c21,1.39,37.94-16.5,37.66-36.38C251.14,407.87,231.79,393.73,212.72,395.12Zm.51,63.83c-16.78,0-30.38-14.13-30.38-31.57s13.6-31.58,30.38-31.58c.57,0,1.12,0,1.68.05-2-.92-3.94,0-5.91,0,2,0,3.94-1,5.91,0,16,.91,28.71,14.67,28.71,31.53C243.62,444.82,230,459,213.23,459Z" transform="translate(-180.82 -377.09)"/><path class="cls-3" d="M245.6,398.44v-1.08a35.48,35.48,0,0,0-21.26-18.13c-17.81-5.17-27.13.64-27.13.64l-.7.7c9,.38,12.06,6.24,18.08,15.16a3.47,3.47,0,0,1,.41.16,3.47,3.47,0,0,0-.41-.16c1,1.47,2,3,3.24,4.63a22.87,22.87,0,0,0,20.94,9.49c1.87.25,5.36,1.44,5.36-.77s-.45-1.51-1.15-6.36-11.3-10.53-12.07-11.11a50.89,50.89,0,0,0-8.74-4.21,53.32,53.32,0,0,1-9-3.38C229.13,382.36,245.6,398.44,245.6,398.44Z" transform="translate(-180.82 -377.09)"/></g><g id="Layer_2" data-name="Layer 2"><text class="cls-4" transform="translate(42.73 55.16) scale(0.97 1)">KI</text><path class="cls-5" d="M55.19,43.86h.89a0,0,0,0,1,0,0v.89a0,0,0,0,1,0,0h-.52a.38.38,0,0,1-.38-.38v-.52A0,0,0,0,1,55.19,43.86Z"/></g><g id="Layer_3" data-name="Layer 3"><rect x="31.16" y="44.65" width="31.65" height="1.93"/><rect x="2.1" y="53.77" width="27.43" height="1.93"/></g><g id="Layer_4" data-name="Layer 4"><text class="cls-6" transform="translate(21.74 55.71)">S</text></g></svg>